<svg width="235" height="235" viewBox="0 0 235 235" fill="none" xmlns="http://www.w3.org/2000/svg">
<path fill-rule="evenodd" clip-rule="evenodd" d="M109.52 29.9424C111.223 30.8727 112.31 32.6841 112.31 34.711V80.1247C112.312 80.9435 112.126 81.7519 111.768 82.4882C111.41 83.2246 110.889 83.8696 110.244 84.3743L95.361 95.8893C102.362 100.756 112.31 107.649 112.31 117.5C112.31 127.928 103.243 135.281 95.1064 139.844L110.088 150.478C111.488 151.506 112.31 153.122 112.31 154.884V200.298C112.314 201.256 112.061 202.197 111.579 203.025C111.097 203.853 110.403 204.537 109.569 205.008C108.738 205.457 107.8 205.666 106.857 205.612C105.915 205.559 105.006 205.244 104.232 204.704L47.1958 164.676C43.3931 162.114 40.26 158.678 38.0589 154.655C35.8578 150.633 34.6528 146.142 34.5449 141.558C34.5449 134.978 37.4433 127.046 47.137 117.705C39.7247 111.39 34.5449 103.713 34.5449 93.4512C34.5449 81.1627 48.8016 70.6366 57.5553 64.9868L104.066 30.4124C104.84 29.8355 105.759 29.4859 106.721 29.4029C107.683 29.3198 108.649 29.5067 109.51 29.9424M56.537 78.8322C52.7476 81.9362 44.9241 87.8014 44.9241 93.4512C44.9241 101.324 49.6926 106.2 55.2935 110.812L70.8426 100.599L81.212 106.827L63.9983 117.451L85.3539 132.843C91.0624 130.415 101.951 125.068 101.951 117.5C101.951 109.47 89.1922 104.496 83.5424 100.599C74.5733 94.3814 62.3435 88.5749 56.586 78.8322H56.537ZM55.4991 124.295C46.0599 132.902 44.9241 138.65 44.9241 141.558C44.9241 145.337 46.8433 151.565 52.9533 155.814H53.012L57.4183 158.928C58.825 155.088 61.0311 151.591 63.8905 148.667C66.75 145.744 70.1976 143.46 74.0053 141.969L81.6722 149.538C75.4545 152.338 69.0312 157.988 67.8366 160.691C67.1382 162.214 66.8191 163.884 66.9064 165.557L101.951 190.183V157.675C86.4128 146.62 70.9287 135.49 55.4991 124.285M65.0362 72.5949C68.5612 80.1639 79.7041 85.1479 86.2351 89.6031L101.951 77.4222V45.1881L65.0362 72.6537V72.5949ZM125.431 29.9816C126.252 29.5366 127.179 29.3259 128.112 29.3726C129.045 29.4192 129.946 29.7213 130.719 30.246L185.16 67.6697C194.227 73.8385 200.445 81.8775 200.445 93.4414C200.445 102.93 194.482 110.91 188.01 117.078C193.708 121.739 200.445 129.514 200.445 141.548C200.445 156.578 189.508 163.785 182.301 168.504L179.971 170.012C176.025 172.754 145.494 194.168 130.817 204.694C130.043 205.235 129.134 205.549 128.191 205.603C127.249 205.656 126.31 205.447 125.48 204.998C124.635 204.535 123.929 203.854 123.436 203.026C122.944 202.197 122.682 201.252 122.68 200.288V154.874C122.68 153.21 123.463 151.604 124.756 150.625L139.326 139.364C131.238 134.341 122.68 128.593 122.68 117.49C122.68 107.747 132.687 100.178 139.531 95.0472L124.912 84.4722C124.222 83.974 123.66 83.3194 123.272 82.562C122.884 81.8046 122.681 80.966 122.68 80.115V34.711C122.665 33.7562 122.914 32.8158 123.4 31.9935C123.885 31.1711 124.588 30.4987 125.431 30.0502V29.9816ZM148.549 101.529C144.564 104.428 133.049 111.272 133.049 117.49C133.049 126.106 145.7 130.865 151.252 134.292L151.448 134.39C161.2 141.078 173.381 146.786 179.765 157.361C185.777 153.151 190.076 149.225 190.076 141.548C190.076 133.098 184.739 127.761 179.814 124.08L164.157 136.211L153.788 130.865L170.894 117.646L148.608 101.578L148.549 101.529ZM179.393 110.753L133.049 77.3145V44.6691L166.488 67.6306C171.932 71.3612 155.913 83.6987 153.788 85.4612L164.157 90.8075C169.964 85.9802 174.321 82.7195 176.965 74.8372L179.452 76.5508C185.523 80.6927 190.076 85.5199 190.076 93.4512C190.076 100.501 184.171 106.406 179.403 110.763M171.109 163.276C166.448 154.982 156.226 150.527 148.823 145.396L133.059 157.577V190.085L171.168 163.276H171.109Z" fill="#69DB63" fill-opacity="0.4"/>
</svg>
